HIERARCHY
ROOT root
{
	OFFSET 0.0000 0.0000 0.0000
	CHANNELS 6 Xposition Yposition Zposition Zrotation Xrotation Yrotation
	JOINT lowerback
	{
		OFFSET 0.0000 0.0000 0.0000
		CHANNELS 3 Zrotation Xrotation Yrotation
		JOINT upperback
		{
			OFFSET -0.2975 11.0962 -0.4289
			CHANNELS 3 Zrotation Xrotation Yrotation
			JOINT thorax
			{
				OFFSET -0.0009 11.0405 -0.3169
				CHANNELS 3 Zrotation Xrotation Yrotation
				JOINT neck
				{
					OFFSET 0.1944 11.1642 0.0841
					CHANNELS 3 Zrotation Xrotation Yrotation
					JOINT head
					{
						OFFSET 1.6277 15.5530 -0.6089
						CHANNELS 3 Zrotation Xrotation Yrotation
						End Site
						{
							OFFSET 0.0000 0.0000 0.0000
						}
					}
				}
			}
			JOINT lshoulderjoint
			{
				OFFSET -0.0009 11.0405 -0.3169
				CHANNELS 3 Zrotation Xrotation Yrotation
				JOINT lhumerus
				{
					OFFSET 14.1669 18.7170 0.1105
					CHANNELS 3 Zrotation Xrotation Yrotation
					JOINT lradius
					{
						OFFSET 29.5186 0.0000 0.0000
						CHANNELS 3 Zrotation Xrotation Yrotation
						JOINT lhand
						{
							OFFSET 23.9354 0.0000 0.0000
							CHANNELS 3 Zrotation Xrotation Yrotation
							End Site
							{
								OFFSET 0.0000 0.0000 0.0000
							}
						}
					}
				}
			}
			JOINT rshoulderjoint
			{
				OFFSET -0.0009 11.0405 -0.3169
				CHANNELS 3 Zrotation Xrotation Yrotation
				JOINT rhumerus
				{
					OFFSET -14.2042 18.2168 -0.2511
					CHANNELS 3 Zrotation Xrotation Yrotation
					JOINT rradius
					{
						OFFSET -29.7619 0.0000 0.0000
						CHANNELS 3 Zrotation Xrotation Yrotation
						JOINT rhand
						{
							OFFSET -25.1658 0.0000 0.0000
							CHANNELS 3 Zrotation Xrotation Yrotation
							End Site
							{
								OFFSET 0.0000 0.0000 0.0000
							}
						}
					}
				}
			}
		}
	}
	JOINT rfemur
	{
		OFFSET -7.7032 -9.8555 2.1513
		CHANNELS 3 Zrotation Xrotation Yrotation
		JOINT rtibia
		{
			OFFSET -7.1353 -40.4666 0.0000
			CHANNELS 3 Zrotation Xrotation Yrotation
			JOINT rfoot
			{
				OFFSET -6.6645 -37.7961 0.0000
				CHANNELS 3 Zrotation Xrotation Yrotation
				JOINT rtoes
				{
					OFFSET -3.4134 -6.6508 11.8768
					CHANNELS 3 Zrotation Xrotation Yrotation
					End Site
					{
						OFFSET 0.0000 0.0000 0.0000
					}
				}
			}
		}
	}
	JOINT lfemur
	{
		OFFSET 8.5590 -9.8555 2.1513
		CHANNELS 3 Zrotation Xrotation Yrotation
		JOINT ltibia
		{
			OFFSET 7.2751 -41.2593 0.0000
			CHANNELS 3 Zrotation Xrotation Yrotation
			JOINT lfoot
			{
				OFFSET 6.5686 -37.2525 -0.0000
				CHANNELS 3 Zrotation Xrotation Yrotation
				JOINT ltoes
				{
					OFFSET 3.2326 -4.1860 10.4122
					CHANNELS 3 Zrotation Xrotation Yrotation
					End Site
					{
						OFFSET 0.0000 0.0000 0.0000
					}
				}
			}
		}
	}
}
MOTION
Frames: 16
Frame Time: 0.008300
-0.0015 -0.0006 0.0002 -2.5796 6.7900 41.9507 -3.6407 -14.3909 -2.1699 -1.0511 -2.5278 -2.2196 1.7008 12.1491 -1.2996 -6.9896 10.3898 -15.1997 11.0114 3.5704 -16.0800 -84.5592 3.7721 -167.6805 -12.6689 -12.7896 -182.4502 -0.0002 0.0005 -60.3906 29.8593 35.5597 5.3210 90.1910 -2.6693 168.1100 10.1182 -4.6328 145.3592 -0.0015 0.0014 67.2498 -3.8389 41.8485 -23.3106 -4.5678 -38.4904 -18.9382 4.1416 44.7005 -10.0473 -2.8609 15.0699 10.4474 -0.0025 0.1299 -0.0201 -12.5675 -9.3305 8.8006 -0.7715 21.6602 4.0185 0.0014 0.0002 -0.0016 0.0012 -0.0012 0.0003 
-0.0006 -0.0014 0.0003 -2.7214 6.7788 42.3402 -3.5802 -14.2585 -2.2597 -0.9995 -2.5302 -2.3600 1.6408 12.0294 -1.3587 -6.8389 10.2999 -15.5297 11.0703 3.4913 -16.3904 -84.5988 3.9089 -167.7899 -13.3111 -12.9099 -183.4914 -0.0003 0.0000 -61.3313 30.5091 35.2910 4.8599 90.1478 -2.8188 168.2395 10.1906 -4.2007 144.6186 0.0006 -0.0006 67.1118 -3.7697 42.3818 -23.4002 -4.6195 -38.5395 -20.0900 3.5480 42.1499 -9.1809 -2.9600 15.0784 10.8515 -0.0012 0.1788 -0.0312 -12.4299 -8.7689 8.5906 -0.7705 21.6223 4.0112 0.0001 0.0006 -0.0001 -0.0001 -0.0017 0.0002 
-0.0007 0.0012 0.0017 -2.8809 6.8611 42.5695 -3.5608 -14.3729 -2.3293 -0.9506 -2.5412 -2.4582 1.6206 12.1390 -1.4094 -6.8284 10.2299 -15.7801 11.1989 3.4108 -16.6300 -84.6098 4.0603 -167.6707 -13.8998 -12.8196 -184.5318 0.0011 0.0006 -62.2408 30.9605 35.3306 4.6599 90.1590 -2.9683 168.1503 10.3209 -3.7998 144.0403 -0.0011 0.0015 66.9395 -3.8497 42.8094 -23.5898 -4.6399 -38.7089 -21.2788 3.0279 39.6201 -8.3896 -3.1199 15.2697 11.3486 -0.0002 0.2287 -0.0392 -12.3302 -8.2673 8.5406 -0.7593 21.5301 3.9898 0.0012 -0.0014 0.0000 0.0019 0.0008 -0.0003 
0.0006 0.0012 0.0007 -2.8596 6.9212 42.7588 -3.7405 -14.3678 -2.3991 -0.9607 -2.4508 -2.5191 1.7692 12.2302 -1.4603 -6.8903 9.9901 -16.0901 11.5285 3.5011 -16.9603 -84.6694 4.1986 -167.5503 -14.7300 -12.7604 -185.5601 -0.0009 -0.0018 -63.1896 31.5094 35.1698 3.8600 90.2497 -3.1304 168.0683 10.4301 -2.9097 143.6401 0.0010 -0.0008 66.7399 -3.6601 43.4604 -24.0604 -4.9510 -38.7002 -22.9011 2.5701 37.0916 -7.6589 -3.4801 15.7493 12.3493 -0.0007 0.1804 -0.0309 -12.3600 -7.6189 8.5503 -0.7490 21.4797 3.9804 0.0003 0.0005 -0.0006 -0.0002 0.0006 0.0013 
-0.0003 0.0001 -0.0011 -2.8097 7.1197 42.8995 -3.8291 -14.3791 -2.4279 -1.0599 -2.4705 -2.5288 1.7503 12.2409 -1.4597 -6.8502 9.8795 -16.4102 11.6295 3.4907 -17.2704 -84.6116 4.3688 -167.5204 -15.3285 -12.6712 -186.4108 0.0001 -0.0013 -64.0881 32.2606 34.7212 2.7388 90.2713 -3.2992 168.0903 10.5595 -2.2899 143.1201 -0.0000 0.0011 66.5911 -3.2409 44.1397 -24.6518 -5.6708 -38.8195 -25.3508 2.1813 34.6086 -6.9904 -4.1289 16.4103 14.2303 -0.0016 0.1987 -0.0405 -12.4799 -7.1196 8.5697 -0.7589 21.5005 3.9801 -0.0001 -0.0009 -0.0019 -0.0017 0.0010 -0.0008 
0.0023 0.0007 -0.0004 -2.7209 7.3298 42.9605 -4.0509 -14.3908 -2.4893 -1.1808 -2.5327 -2.5807 1.8305 12.2001 -1.5006 -6.7619 10.0095 -16.5596 11.7804 3.2699 -17.4014 -84.3589 4.3914 -167.5795 -15.7595 -12.6569 -187.1718 -0.0004 0.0001 -64.9299 33.4602 34.7394 1.7995 90.3182 -3.2704 168.1208 10.6104 -1.6796 142.5687 -0.0015 -0.0006 66.4191 -2.5194 44.5895 -25.0294 -6.5602 -39.0006 -28.3597 1.8490 32.2507 -6.3913 -5.0508 17.2988 16.6993 -0.0011 0.0886 -0.0199 -12.6101 -6.6297 8.6681 -0.7598 21.5778 4.0001 -0.0002 -0.0011 0.0007 0.0007 -0.0001 0.0003 
0.0011 0.0006 -0.0001 -2.7106 7.5096 43.0707 -4.1795 -14.4799 -2.5695 -1.2201 -2.5407 -2.6501 1.8903 12.2881 -1.5407 -6.9216 10.0100 -16.7506 12.2288 3.2187 -17.6294 -84.3390 4.3998 -167.5009 -16.3399 -12.5301 -187.9492 0.0012 0.0005 -65.7905 33.9604 34.6500 1.2331 90.3193 -3.2711 168.0197 10.6906 -1.0404 142.1291 0.0003 0.0000 66.2601 -1.8588 44.8792 -25.6690 -7.4992 -39.1608 -31.8903 1.5685 30.0102 -5.8503 -6.2003 18.0383 19.8695 -0.0027 0.0404 -0.0120 -12.6696 -6.1798 8.7089 -0.7694 21.6799 4.0201 0.0002 0.0007 -0.0007 0.0001 0.0002 -0.0004 
-0.0003 -0.0003 0.0006 -2.6697 7.5615 43.0508 -4.2400 -14.4822 -2.5488 -1.2509 -2.5401 -2.6097 1.9416 12.2909 -1.5294 -6.9604 10.0383 -16.9285 12.4107 3.0511 -17.7990 -84.3601 4.4392 -167.4801 -16.9998 -12.4105 -188.6995 -0.0005 0.0016 -66.5987 33.7681 34.6098 0.9995 90.3492 -3.3312 168.0308 10.7901 -0.1089 141.6494 -0.0007 -0.0001 66.1279 -1.2416 45.5384 -26.3405 -6.8903 -39.3409 -31.6502 1.3394 27.9596 -5.3694 -6.4813 18.5524 20.1199 0.0010 0.0305 -0.0094 -12.6006 -5.6119 8.8998 -0.7795 21.8599 4.0602 0.0003 -0.0020 -0.0004 0.0005 0.0020 0.0017 
0.0018 0.0004 -0.0002 -2.5105 7.7286 42.9506 -4.4704 -14.4303 -2.5285 -1.3507 -2.5104 -2.5402 2.0995 12.2706 -1.5090 -6.9304 9.9594 -17.0794 12.5784 3.0617 -17.9521 -84.2407 4.5104 -167.4685 -17.5900 -12.3898 -189.3501 -0.0013 -0.0002 -67.3998 33.3512 33.8694 0.9892 90.4518 -3.3911 168.0599 10.8505 0.4104 141.3398 -0.0018 -0.0017 65.9709 -0.8494 45.8614 -26.7216 -6.5100 -39.6506 -31.3396 1.1489 26.1500 -4.9703 -6.8497 19.0600 20.6405 -0.0010 -0.0579 0.0109 -12.7104 -5.0916 9.1499 -0.7993 22.1098 4.1101 0.0001 -0.0005 -0.0000 0.0006 -0.0012 -0.0016 
-0.0005 0.0016 -0.0001 -2.2994 7.9796 42.9303 -4.9492 -14.3613 -2.6400 -1.4185 -2.5511 -2.6082 2.4897 12.1999 -1.5896 -7.0291 9.9888 -17.1996 12.3899 3.0401 -18.0685 -84.0084 4.4606 -167.5605 -18.0591 -12.3306 -189.8096 0.0012 0.0001 -68.1487 33.4489 33.3101 0.9390 90.6810 -3.3404 168.1112 11.0007 1.0599 141.0117 0.0008 -0.0007 65.8308 -0.2314 46.5021 -27.2005 -6.3909 -39.9612 -31.1701 1.0102 24.5598 -4.6190 -7.1387 19.2608 21.3197 0.0011 -0.0996 0.0188 -12.9020 -4.6791 9.2895 -0.8303 22.4206 4.1703 0.0003 -0.0010 0.0019 0.0008 0.0002 0.0025 
-0.0024 0.0006 -0.0013 -2.2632 8.0800 42.9594 -4.9497 -14.3491 -2.6595 -1.4802 -2.5907 -2.6307 2.4212 12.1600 -1.5893 -6.9502 9.9512 -17.2790 12.4394 3.1700 -18.1498 -83.9193 4.5195 -167.5986 -18.2409 -12.0588 -190.2105 0.0000 0.0005 -68.8077 33.5900 33.1798 0.9103 90.5989 -3.3814 168.1610 11.0695 1.5516 140.7093 -0.0008 0.0010 65.6914 0.1610 46.8705 -27.4302 -6.0384 -40.1691 -31.0121 0.8785 23.0989 -4.3099 -7.3486 19.1408 22.1603 -0.0000 -0.1711 0.0309 -12.8498 -4.2300 9.4109 -0.8480 22.7102 4.2297 -0.0010 0.0005 -0.0006 0.0012 0.0006 -0.0017 
-0.0002 0.0002 0.0001 -2.4898 8.2101 43.0389 -4.8296 -14.5993 -2.7119 -1.4088 -2.7093 -2.7212 2.3116 12.2905 -1.6182 -6.9802 9.8798 -17.3002 12.5113 3.3004 -18.1906 -84.0096 4.5105 -167.4904 -18.3406 -11.7413 -190.6192 -0.0008 -0.0003 -69.4104 34.0903 33.6999 1.1310 90.4905 -3.3391 168.0190 11.1721 2.0985 140.5305 -0.0018 -0.0005 65.5792 0.8187 47.0193 -27.9209 -5.5598 -40.4900 -30.9090 0.7784 21.7689 -4.0388 -7.4400 18.7197 23.0790 0.0002 -0.3198 0.0602 -12.6180 -3.9799 9.4704 -0.8685 22.9594 4.2808 0.0028 0.0023 0.0000 0.0004 -0.0004 -0.0007 
0.0008 -0.0007 0.0004 -2.6309 8.4394 43.1501 -4.8505 -14.7987 -2.8510 -1.3789 -2.8395 -2.8898 2.2678 12.3720 -1.7009 -7.1707 9.8298 -17.2720 12.5378 3.3409 -18.1814 -84.1499 4.2996 -167.4589 -18.5299 -11.4214 -190.9319 0.0018 -0.0013 -69.9814 34.3401 34.0299 0.9195 90.4001 -3.1285 167.8888 11.1507 2.3206 140.4108 -0.0006 -0.0009 65.4505 1.2298 46.9796 -28.2321 -5.2291 -40.7204 -30.8497 0.6885 20.5906 -3.8010 -7.2204 17.7091 23.9797 0.0019 -0.2799 0.0528 -12.6104 -3.6606 9.4993 -0.8806 23.1016 4.3098 0.0005 -0.0010 -0.0009 -0.0001 -0.0013 0.0005 
-0.0002 0.0009 -0.0004 -2.6009 8.6691 43.1607 -4.9595 -14.8724 -2.9106 -1.4381 -2.9606 -2.9404 2.2892 12.3414 -1.7302 -7.3911 9.9393 -17.2971 12.8414 3.3491 -18.2509 -84.0901 4.2011 -167.5103 -18.6111 -11.2090 -191.1494 -0.0002 0.0011 -70.4783 33.9900 33.3187 0.1292 90.4209 -3.0297 167.8999 11.1801 2.4916 140.1893 0.0007 0.0006 65.3602 1.6492 47.2596 -28.6001 -4.9814 -40.8301 -30.6898 0.6308 19.6919 -3.6203 -6.6291 16.1409 24.6292 -0.0011 0.0313 -0.0082 -12.6796 -3.1601 9.6303 -0.8814 23.1200 4.3208 0.0007 -0.0005 0.0009 0.0007 0.0007 -0.0001 
0.0025 0.0005 0.0017 -2.5303 8.7699 43.2795 -5.0290 -14.8402 -2.9285 -1.4919 -2.9800 -2.9597 2.3116 12.2904 -1.7406 -7.4590 9.9094 -17.4003 12.9606 3.4004 -18.3693 -84.0897 4.2799 -167.5516 -18.7593 -11.0304 -191.3511 0.0000 0.0032 -70.9611 34.2598 33.0094 -0.4899 90.4503 -3.1090 167.9632 11.2698 2.7894 140.0712 -0.0010 0.0010 65.2903 2.1973 47.2722 -29.0000 -4.8488 -40.7822 -30.6992 0.5862 19.1814 -3.5203 -5.7501 14.1985 24.9591 -0.0000 0.5101 -0.0900 -12.6384 -2.5321 9.6797 -0.8805 23.0474 4.2974 -0.0026 0.0004 0.0011 0.0001 0.0016 -0.0007 
-0.0018 -0.0018 0.0014 -2.4207 8.8012 43.3920 -5.0484 -14.7914 -2.9399 -1.5509 -2.9192 -2.9696 2.2696 12.3002 -1.7404 -7.3514 9.8216 -17.5700 12.9286 3.3299 -18.5109 -84.1605 4.3011 -167.5303 -18.9304 -10.8895 -191.5718 -0.0021 0.0001 -71.4490 33.4607 32.7699 -0.2189 90.6103 -3.1804 167.9600 11.4202 2.8390 140.0591 0.0014 -0.0007 65.2500 2.8102 47.0902 -29.5087 -4.9012 -40.7001 -30.7986 0.5911 19.1892 -3.5195 -4.8000 12.2511 25.1009 0.0006 1.1697 -0.2116 -12.5694 -1.7508 9.7609 -0.8700 22.9193 4.2691 0.0010 0.0029 -0.0006 -0.0014 -0.0013 0.0013 
